<svg width="607" height="615" viewBox="0 0 607 615" fill="none" xmlns="http://www.w3.org/2000/svg">
<rect x="82.6268" y="101.627" width="441.746" height="441.746" rx="133.224" fill="#453D99" stroke="url(#paint0_linear_103_253)" stroke-width="6.74632"/>
<g filter="url(#filter0_d_103_253)">
<circle cx="292.171" cy="290.935" r="80.9558" fill="#F19601"/>
</g>
<g filter="url(#filter1_d_103_253)">
<circle cx="292.538" cy="291.299" r="60.8992" fill="#EA6F3B"/>
</g>
<g filter="url(#filter2_d_103_253)">
<circle cx="292.397" cy="289.33" r="40.8426" fill="#E3362D"/>
</g>
<mask id="path-5-inside-1_103_253" fill="white">
<path fill-rule="evenodd" clip-rule="evenodd" d="M230.283 307.11C242.748 307.11 253.684 313.548 259.837 323.226C266.04 317.617 274.318 314.192 283.41 314.192C286.257 314.192 289.024 314.528 291.672 315.161C294.32 314.528 297.087 314.192 299.934 314.192C319.168 314.192 334.761 329.52 334.761 348.429C334.761 360.761 328.128 371.57 318.178 377.597C317.116 395.567 301.956 409.818 283.41 409.818C277.182 409.818 271.335 408.211 266.276 405.395C258.568 416.595 245.327 423.985 230.286 423.985C206.487 423.985 187.195 405.485 187.195 382.665C187.195 379.289 187.617 376.008 188.414 372.867C184.231 374.616 179.629 375.583 174.797 375.583C155.563 375.583 139.97 360.255 139.97 341.347C139.97 322.438 155.563 307.11 174.797 307.11C186.119 307.11 196.179 312.421 202.54 320.647C208.901 312.421 218.961 307.11 230.283 307.11Z"/>
</mask>
<g filter="url(#filter3_i_103_253)">
<path fill-rule="evenodd" clip-rule="evenodd" d="M230.283 307.11C242.748 307.11 253.684 313.548 259.837 323.226C266.04 317.617 274.318 314.192 283.41 314.192C286.257 314.192 289.024 314.528 291.672 315.161C294.32 314.528 297.087 314.192 299.934 314.192C319.168 314.192 334.761 329.52 334.761 348.429C334.761 360.761 328.128 371.57 318.178 377.597C317.116 395.567 301.956 409.818 283.41 409.818C277.182 409.818 271.335 408.211 266.276 405.395C258.568 416.595 245.327 423.985 230.286 423.985C206.487 423.985 187.195 405.485 187.195 382.665C187.195 379.289 187.617 376.008 188.414 372.867C184.231 374.616 179.629 375.583 174.797 375.583C155.563 375.583 139.97 360.255 139.97 341.347C139.97 322.438 155.563 307.11 174.797 307.11C186.119 307.11 196.179 312.421 202.54 320.647C208.901 312.421 218.961 307.11 230.283 307.11Z" fill="#6EB6EB" fill-opacity="0.7"/>
</g>
<path d="M259.837 323.226L257.068 324.987L259.154 328.269L262.039 325.661L259.837 323.226ZM291.672 315.161L290.909 318.353L291.672 318.536L292.435 318.353L291.672 315.161ZM318.178 377.597L316.477 374.79L315.003 375.683L314.901 377.404L318.178 377.597ZM266.276 405.395L267.873 402.527L265.265 401.076L263.573 403.534L266.276 405.395ZM188.414 372.867L191.595 373.674L193.21 367.305L187.148 369.839L188.414 372.867ZM202.54 320.647L199.943 322.655L202.54 326.012L205.136 322.655L202.54 320.647ZM262.607 321.466C255.868 310.865 243.901 303.828 230.283 303.828V310.392C241.596 310.392 251.501 316.231 257.068 324.987L262.607 321.466ZM283.41 310.91C273.48 310.91 264.423 314.654 257.636 320.792L262.039 325.661C267.656 320.58 275.156 317.474 283.41 317.474V310.91ZM292.435 311.969C289.539 311.277 286.516 310.91 283.41 310.91V317.474C285.998 317.474 288.509 317.779 290.909 318.353L292.435 311.969ZM299.934 310.91C296.828 310.91 293.805 311.277 290.909 311.969L292.435 318.353C294.835 317.779 297.346 317.474 299.934 317.474V310.91ZM338.043 348.429C338.043 327.655 320.928 310.91 299.934 310.91V317.474C317.409 317.474 331.479 331.386 331.479 348.429H338.043ZM319.878 380.405C330.753 373.817 338.043 361.974 338.043 348.429H331.479C331.479 359.548 325.502 369.324 316.477 374.79L319.878 380.405ZM283.41 413.1C303.655 413.1 320.288 397.533 321.454 377.791L314.901 377.404C313.945 393.602 300.257 406.536 283.41 406.536V413.1ZM264.68 408.263C270.217 411.344 276.611 413.1 283.41 413.1V406.536C277.753 406.536 272.454 405.077 267.873 402.527L264.68 408.263ZM230.286 427.267C246.415 427.267 260.664 419.339 268.98 407.256L263.573 403.534C256.473 413.851 244.239 420.703 230.286 420.703V427.267ZM183.913 382.665C183.913 407.426 204.806 427.267 230.286 427.267V420.703C208.169 420.703 190.477 403.544 190.477 382.665H183.913ZM185.232 372.06C184.37 375.462 183.913 379.014 183.913 382.665H190.477C190.477 379.564 190.865 376.554 191.595 373.674L185.232 372.06ZM187.148 369.839C183.36 371.423 179.188 372.301 174.797 372.301V378.865C180.07 378.865 185.102 377.809 189.679 375.895L187.148 369.839ZM174.797 372.301C157.322 372.301 143.252 358.39 143.252 341.347H136.688C136.688 362.12 153.803 378.865 174.797 378.865V372.301ZM143.252 341.347C143.252 324.304 157.322 310.392 174.797 310.392V303.828C153.803 303.828 136.688 320.573 136.688 341.347H143.252ZM174.797 310.392C185.073 310.392 194.185 315.208 199.943 322.655L205.136 318.639C198.172 309.634 187.165 303.828 174.797 303.828V310.392ZM230.283 303.828C217.915 303.828 206.907 309.634 199.943 318.64L205.136 322.655C210.894 315.208 220.007 310.392 230.283 310.392V303.828Z" fill="url(#paint1_linear_103_253)" fill-opacity="0.5" mask="url(#path-5-inside-1_103_253)"/>
<g filter="url(#filter4_bi_103_253)">
<mask id="path-7-inside-2_103_253" fill="white">
<path fill-rule="evenodd" clip-rule="evenodd" d="M416.613 376.93C403.727 376.93 392.048 372.563 383.534 365.484C378.298 377.5 366.164 385.917 352.031 385.917C337.772 385.917 325.547 377.348 320.389 365.159C315.766 374.141 306.268 380.301 295.303 380.301C289.557 380.301 284.214 378.61 279.764 375.707C275.721 377.918 271.062 379.177 266.104 379.177C259.057 379.177 252.617 376.634 247.686 372.432C235.604 369.06 226.79 358.522 226.79 346.043C226.79 330.845 239.865 318.524 255.994 318.524C260.575 318.524 264.909 319.518 268.768 321.289C272.581 310.525 283.021 302.798 295.303 302.798C299.763 302.798 303.98 303.817 307.725 305.63C307.682 304.879 307.66 304.122 307.66 303.36C307.66 280.718 327.021 262.362 350.904 262.362C367.989 262.362 382.76 271.755 389.784 285.391C394.011 282.895 398.964 281.458 404.258 281.458C416.141 281.458 426.301 288.692 430.401 298.911C449.729 303.896 463.789 319.088 463.789 337.056C463.789 359.078 442.668 376.93 416.613 376.93Z"/>
</mask>
<path fill-rule="evenodd" clip-rule="evenodd" d="M416.613 376.93C403.727 376.93 392.048 372.563 383.534 365.484C378.298 377.5 366.164 385.917 352.031 385.917C337.772 385.917 325.547 377.348 320.389 365.159C315.766 374.141 306.268 380.301 295.303 380.301C289.557 380.301 284.214 378.61 279.764 375.707C275.721 377.918 271.062 379.177 266.104 379.177C259.057 379.177 252.617 376.634 247.686 372.432C235.604 369.06 226.79 358.522 226.79 346.043C226.79 330.845 239.865 318.524 255.994 318.524C260.575 318.524 264.909 319.518 268.768 321.289C272.581 310.525 283.021 302.798 295.303 302.798C299.763 302.798 303.98 303.817 307.725 305.63C307.682 304.879 307.66 304.122 307.66 303.36C307.66 280.718 327.021 262.362 350.904 262.362C367.989 262.362 382.76 271.755 389.784 285.391C394.011 282.895 398.964 281.458 404.258 281.458C416.141 281.458 426.301 288.692 430.401 298.911C449.729 303.896 463.789 319.088 463.789 337.056C463.789 359.078 442.668 376.93 416.613 376.93Z" fill="#9FCBEB" fill-opacity="0.5"/>
<path d="M383.534 365.484L385.632 362.961L382.271 360.167L380.525 364.173L383.534 365.484ZM320.389 365.159L323.412 363.88L320.68 357.424L317.471 363.657L320.389 365.159ZM279.764 375.707L281.557 372.958L279.913 371.886L278.19 372.828L279.764 375.707ZM247.686 372.432L249.815 369.934L249.265 369.466L248.569 369.271L247.686 372.432ZM268.768 321.289L267.399 324.272L270.663 325.77L271.862 322.385L268.768 321.289ZM307.725 305.63L306.295 308.584L311.323 311.019L311.002 305.441L307.725 305.63ZM389.784 285.391L386.867 286.894L388.459 289.985L391.453 288.217L389.784 285.391ZM430.401 298.911L427.355 300.133L427.973 301.674L429.581 302.089L430.401 298.911ZM381.435 368.008C390.564 375.598 402.995 380.212 416.613 380.212V373.648C404.46 373.648 393.531 369.528 385.632 362.961L381.435 368.008ZM352.031 389.199C367.492 389.199 380.794 379.988 386.542 366.796L380.525 364.173C375.802 375.013 364.836 382.635 352.031 382.635V389.199ZM317.367 366.438C323.03 379.821 336.432 389.199 352.031 389.199V382.635C339.111 382.635 328.064 374.875 323.412 363.88L317.367 366.438ZM295.303 383.583C307.52 383.583 318.132 376.716 323.307 366.661L317.471 363.657C313.4 371.566 305.017 377.019 295.303 377.019V383.583ZM277.971 378.456C282.941 381.698 288.905 383.583 295.303 383.583V377.019C290.209 377.019 285.487 375.521 281.557 372.958L277.971 378.456ZM266.104 382.459C271.624 382.459 276.823 381.056 281.339 378.587L278.19 372.828C274.619 374.78 270.501 375.896 266.104 375.896V382.459ZM245.558 374.93C251.065 379.624 258.255 382.459 266.104 382.459V375.896C259.859 375.896 254.169 373.644 249.815 369.934L245.558 374.93ZM248.569 369.271C237.753 366.253 230.072 356.897 230.072 346.043H223.508C223.508 360.146 233.456 371.868 246.804 375.594L248.569 369.271ZM230.072 346.043C230.072 332.838 241.491 321.806 255.994 321.806V315.242C238.239 315.242 223.508 328.851 223.508 346.043H230.072ZM255.994 321.806C260.097 321.806 263.965 322.696 267.399 324.272L270.137 318.306C265.854 316.34 261.052 315.242 255.994 315.242V321.806ZM295.303 299.516C281.622 299.516 269.948 308.127 265.674 320.193L271.862 322.385C275.213 312.923 284.42 306.08 295.303 306.08V299.516ZM309.155 302.676C304.972 300.651 300.267 299.516 295.303 299.516V306.08C299.258 306.08 302.987 306.983 306.295 308.584L309.155 302.676ZM304.378 303.36C304.378 304.185 304.402 305.004 304.449 305.819L311.002 305.441C310.962 304.753 310.942 304.059 310.942 303.36H304.378ZM350.904 259.08C325.376 259.08 304.378 278.742 304.378 303.36H310.942C310.942 282.693 328.666 265.644 350.904 265.644V259.08ZM392.702 283.888C385.105 269.142 369.197 259.08 350.904 259.08V265.644C366.78 265.644 380.414 274.369 386.867 286.894L392.702 283.888ZM404.258 278.176C398.363 278.176 392.836 279.777 388.115 282.565L391.453 288.217C395.186 286.012 399.564 284.74 404.258 284.74V278.176ZM433.447 297.689C428.852 286.238 417.496 278.176 404.258 278.176V284.74C414.787 284.74 423.749 291.146 427.355 300.133L433.447 297.689ZM467.071 337.056C467.071 317.232 451.619 300.994 431.221 295.733L429.581 302.089C447.839 306.798 460.507 320.944 460.507 337.056H467.071ZM416.613 380.212C443.941 380.212 467.071 361.386 467.071 337.056H460.507C460.507 356.77 441.394 373.648 416.613 373.648V380.212Z" fill="url(#paint2_linear_103_253)" fill-opacity="0.5" mask="url(#path-7-inside-2_103_253)"/>
</g>
<path d="M557 307.5C557 450.333 442.889 565 303.5 565C164.111 565 50 450.333 50 307.5C50 164.667 164.111 50 303.5 50C442.889 50 557 164.667 557 307.5Z" stroke="white" stroke-width="100"/>
<defs>
<filter id="filter0_d_103_253" x="206.902" y="209.979" width="170.537" height="170.537" filterUnits="userSpaceOnUse" color-interpolation-filters="sRGB">
<feFlood flood-opacity="0" result="BackgroundImageFix"/>
<feColorMatrix in="SourceAlpha" type="matrix" values="0 0 0 0 0 0 0 0 0 0 0 0 0 0 0 0 0 0 127 0" result="hardAlpha"/>
<feOffset dy="4.31252"/>
<feGaussianBlur stdDeviation="2.15626"/>
<feComposite in2="hardAlpha" operator="out"/>
<feColorMatrix type="matrix" values="0 0 0 0 0 0 0 0 0 0 0 0 0 0 0 0 0 0 0.25 0"/>
<feBlend mode="normal" in2="BackgroundImageFix" result="effect1_dropShadow_103_253"/>
<feBlend mode="normal" in="SourceGraphic" in2="effect1_dropShadow_103_253" result="shape"/>
</filter>
<filter id="filter1_d_103_253" x="227.327" y="230.399" width="130.423" height="130.423" filterUnits="userSpaceOnUse" color-interpolation-filters="sRGB">
<feFlood flood-opacity="0" result="BackgroundImageFix"/>
<feColorMatrix in="SourceAlpha" type="matrix" values="0 0 0 0 0 0 0 0 0 0 0 0 0 0 0 0 0 0 127 0" result="hardAlpha"/>
<feOffset dy="4.31252"/>
<feGaussianBlur stdDeviation="2.15626"/>
<feComposite in2="hardAlpha" operator="out"/>
<feColorMatrix type="matrix" values="0 0 0 0 0 0 0 0 0 0 0 0 0 0 0 0 0 0 0.25 0"/>
<feBlend mode="normal" in2="BackgroundImageFix" result="effect1_dropShadow_103_253"/>
<feBlend mode="normal" in="SourceGraphic" in2="effect1_dropShadow_103_253" result="shape"/>
</filter>
<filter id="filter2_d_103_253" x="247.242" y="248.487" width="90.3101" height="90.3101" filterUnits="userSpaceOnUse" color-interpolation-filters="sRGB">
<feFlood flood-opacity="0" result="BackgroundImageFix"/>
<feColorMatrix in="SourceAlpha" type="matrix" values="0 0 0 0 0 0 0 0 0 0 0 0 0 0 0 0 0 0 127 0" result="hardAlpha"/>
<feOffset dy="4.31252"/>
<feGaussianBlur stdDeviation="2.15626"/>
<feComposite in2="hardAlpha" operator="out"/>
<feColorMatrix type="matrix" values="0 0 0 0 0 0 0 0 0 0 0 0 0 0 0 0 0 0 0.25 0"/>
<feBlend mode="normal" in2="BackgroundImageFix" result="effect1_dropShadow_103_253"/>
<feBlend mode="normal" in="SourceGraphic" in2="effect1_dropShadow_103_253" result="shape"/>
</filter>
<filter id="filter3_i_103_253" x="139.97" y="307.11" width="194.791" height="116.875" filterUnits="userSpaceOnUse" color-interpolation-filters="sRGB">
<feFlood flood-opacity="0" result="BackgroundImageFix"/>
<feBlend mode="normal" in="SourceGraphic" in2="BackgroundImageFix" result="shape"/>
<feColorMatrix in="SourceAlpha" type="matrix" values="0 0 0 0 0 0 0 0 0 0 0 0 0 0 0 0 0 0 127 0" result="hardAlpha"/>
<feOffset/>
<feGaussianBlur stdDeviation="27.3499"/>
<feComposite in2="hardAlpha" operator="arithmetic" k2="-1" k3="1"/>
<feColorMatrix type="matrix" values="0 0 0 0 1 0 0 0 0 1 0 0 0 0 1 0 0 0 1 0"/>
<feBlend mode="normal" in2="shape" result="effect1_innerShadow_103_253"/>
</filter>
<filter id="filter4_bi_103_253" x="172.09" y="207.663" width="346.398" height="232.955" filterUnits="userSpaceOnUse" color-interpolation-filters="sRGB">
<feFlood flood-opacity="0" result="BackgroundImageFix"/>
<feGaussianBlur in="BackgroundImageFix" stdDeviation="27.3499"/>
<feComposite in2="SourceAlpha" operator="in" result="effect1_backgroundBlur_103_253"/>
<feBlend mode="normal" in="SourceGraphic" in2="effect1_backgroundBlur_103_253" result="shape"/>
<feColorMatrix in="SourceAlpha" type="matrix" values="0 0 0 0 0 0 0 0 0 0 0 0 0 0 0 0 0 0 127 0" result="hardAlpha"/>
<feOffset/>
<feGaussianBlur stdDeviation="27.3499"/>
<feComposite in2="hardAlpha" operator="arithmetic" k2="-1" k3="1"/>
<feColorMatrix type="matrix" values="0 0 0 0 1 0 0 0 0 1 0 0 0 0 1 0 0 0 0.5 0"/>
<feBlend mode="normal" in2="shape" result="effect2_innerShadow_103_253"/>
</filter>
<linearGradient id="paint0_linear_103_253" x1="303.5" y1="105" x2="303.5" y2="540" gradientUnits="userSpaceOnUse">
<stop stop-color="#E6E4FF"/>
<stop offset="1" stop-color="#AAFAFF"/>
</linearGradient>
<linearGradient id="paint1_linear_103_253" x1="237.365" y1="307.11" x2="237.365" y2="423.985" gradientUnits="userSpaceOnUse">
<stop stop-color="white" stop-opacity="0.61"/>
<stop offset="1" stop-color="#37A4F3" stop-opacity="0.61"/>
</linearGradient>
<linearGradient id="paint2_linear_103_253" x1="345.289" y1="262.362" x2="345.289" y2="385.917" gradientUnits="userSpaceOnUse">
<stop stop-color="#F2F6FA" stop-opacity="0.57"/>
<stop offset="1" stop-color="#50ADF1" stop-opacity="0.34"/>
</linearGradient>
</defs>
</svg>
