<svg width="35" height="36" viewBox="0 0 35 36" fill="none" xmlns="http://www.w3.org/2000/svg">
<path d="M23.7488 10.7384L23.1246 11.2561C21.6305 9.94157 19.7047 8.96762 17.593 8.96762C12.8383 8.96762 9 13.1086 9 17.9784C9 18.4279 9.02656 18.8706 9.09297 19.2997C8.96016 15.4856 11.8687 12.6659 15.2422 12.6659C16.8492 12.6659 18.3102 13.3061 19.3992 14.3482L17.7258 15.7376C17.1746 15.6763 16.6102 15.8602 16.1918 16.2893C15.4547 17.0385 15.4547 18.2576 16.1918 19.0136C16.9289 19.7628 18.1109 19.7628 18.848 19.0136C19.2664 18.5845 19.4457 17.9988 19.3859 17.4403L24.3797 11.3923C24.798 10.9496 24.1605 10.3094 23.7488 10.7384ZM18.184 18.3325C17.8121 18.7071 17.2145 18.7071 16.8426 18.3325C16.4707 17.9511 16.4707 17.3382 16.8426 16.9567C17.2145 16.5753 17.8121 16.5753 18.184 16.9567C18.5559 17.3382 18.5559 17.9579 18.184 18.3325ZM17.5 2.4292C9.29883 2.4292 2.625 9.27411 2.625 17.6855C2.625 26.0969 9.29883 32.9418 17.5 32.9418C25.7012 32.9418 32.375 26.0969 32.375 17.6855C32.375 9.27411 25.7012 2.4292 17.5 2.4292ZM17.5 28.5829C11.643 28.5829 6.875 23.6927 6.875 17.6855C6.875 11.6783 11.643 6.78814 17.5 6.78814C23.357 6.78814 28.125 11.6783 28.125 17.6855C28.125 23.6927 23.357 28.5829 17.5 28.5829Z" fill="white"/>
</svg>
