<svg width="35" height="36" viewBox="0 0 35 36" fill="none" xmlns="http://www.w3.org/2000/svg">
<g clip-path="url(#clip0_76_373)">
<path d="M33.8588 16.801C30.6577 10.3952 24.3205 6.06104 17.0642 6.06104C9.80791 6.06104 3.46891 10.3982 0.269594 16.8016C0.134563 17.0755 0.064209 17.3782 0.064209 17.6852C0.064209 17.9922 0.134563 18.2948 0.269594 18.5688C3.47068 24.9746 9.80791 29.3087 17.0642 29.3087C24.3205 29.3087 30.6595 24.9716 33.8588 18.5682C33.9939 18.2942 34.0642 17.9916 34.0642 17.6846C34.0642 17.3776 33.9939 17.0749 33.8588 16.801ZM17.0642 26.4028C15.3831 26.4028 13.7397 25.8915 12.3419 24.9335C10.944 23.9756 9.85456 22.6141 9.21122 21.0211C8.56787 19.4281 8.39954 17.6752 8.72752 15.9841C9.05549 14.293 9.86504 12.7396 11.0538 11.5204C12.2425 10.3012 13.7571 9.47089 15.4059 9.13451C17.0548 8.79813 18.7638 8.97077 20.317 9.63061C21.8702 10.2904 23.1977 11.4078 24.1317 12.8415C25.0657 14.2751 25.5642 15.9607 25.5642 17.6849C25.5648 18.8299 25.3453 19.9638 24.9183 21.0217C24.4913 22.0797 23.8652 23.041 23.0758 23.8506C22.2864 24.6603 21.3492 25.3024 20.3177 25.7403C19.2862 26.1782 18.1806 26.4033 17.0642 26.4028ZM17.0642 11.873C16.5584 11.8802 16.0559 11.9574 15.5702 12.1024C15.9706 12.6604 16.1627 13.3471 16.1117 14.0379C16.0608 14.7287 15.7701 15.3779 15.2925 15.8678C14.8149 16.3576 14.1819 16.6557 13.5083 16.708C12.8348 16.7602 12.1653 16.5632 11.6212 16.1526C11.3114 17.3232 11.3674 18.564 11.7811 19.7003C12.1949 20.8366 12.9457 21.8112 13.9278 22.487C14.91 23.1627 16.074 23.5056 17.256 23.4673C18.4381 23.429 19.5787 23.0114 20.5173 22.2735C21.4559 21.5355 22.1452 20.5142 22.4882 19.3534C22.8312 18.1926 22.8107 16.9506 22.4294 15.8024C22.0482 14.6542 21.3255 13.6575 20.3631 12.9526C19.4006 12.2477 18.2469 11.8701 17.0642 11.873Z" fill="white"/>
</g>
<defs>
<clipPath id="clip0_76_373">
<rect width="34.8716" height="34.8716" fill="white" transform="translate(0.064209 0.25)"/>
</clipPath>
</defs>
</svg>
