<svg width="35" height="35" viewBox="0 0 35 35" fill="none" xmlns="http://www.w3.org/2000/svg">
<path d="M28.6563 7.12939C27.9208 7.12939 27.2018 7.3507 26.5902 7.76533C25.9787 8.17996 25.502 8.76929 25.2206 9.4588C24.9391 10.1483 24.8655 10.907 25.009 11.639C25.1524 12.371 25.5066 13.0433 26.0267 13.5711C26.5468 14.0988 27.2094 14.4582 27.9308 14.6038C28.6521 14.7494 29.3998 14.6746 30.0794 14.389C30.7589 14.1034 31.3397 13.6198 31.7483 12.9992C32.1569 12.3787 32.375 11.6491 32.375 10.9028C32.3739 9.9024 31.9817 8.94326 31.2846 8.23585C30.5874 7.52843 29.6422 7.13052 28.6563 7.12939ZM28.6563 12.52C28.341 12.52 28.0329 12.4252 27.7708 12.2475C27.5087 12.0698 27.3044 11.8172 27.1838 11.5217C27.0632 11.2262 27.0316 10.901 27.0931 10.5873C27.1546 10.2736 27.3064 9.98547 27.5293 9.75931C27.7522 9.53314 28.0362 9.37912 28.3453 9.31672C28.6545 9.25432 28.9749 9.28634 29.2662 9.40874C29.5574 9.53115 29.8063 9.73843 29.9814 10.0044C30.1565 10.2703 30.25 10.583 30.25 10.9028C30.2495 11.3316 30.0815 11.7426 29.7827 12.0458C29.4839 12.349 29.0788 12.5195 28.6563 12.52ZM21.75 19.43V6.59033C21.75 5.16065 21.1903 3.78952 20.194 2.77858C19.1977 1.76765 17.8465 1.19971 16.4375 1.19971C15.0285 1.19971 13.6773 1.76765 12.681 2.77858C11.6847 3.78952 11.125 5.16065 11.125 6.59033V19.43C9.92209 20.5218 9.07422 21.9584 8.69357 23.5498C8.31293 25.1412 8.41745 26.8124 8.99332 28.3422C9.56918 29.872 10.5892 31.1883 11.9185 32.117C13.2478 33.0457 14.8236 33.5429 16.4375 33.5429C18.0514 33.5429 19.6272 33.0457 20.9565 32.117C22.2858 31.1883 23.3058 29.872 23.8817 28.3422C24.4576 26.8124 24.5621 25.1412 24.1814 23.5498C23.8008 21.9584 22.9529 20.5218 21.75 19.43ZM16.4375 31.3872C15.2255 31.3872 14.0434 31.0047 13.055 30.2928C12.0667 29.5809 11.3209 28.5748 10.921 27.4138C10.5211 26.2528 10.4868 24.9944 10.823 23.8127C11.1592 22.6311 11.8491 21.5848 12.7972 20.8186C12.9371 20.7192 13.0512 20.587 13.13 20.4333C13.2088 20.2796 13.25 20.1088 13.25 19.9355V6.59033C13.25 5.73252 13.5858 4.90985 14.1836 4.30328C14.7814 3.69672 15.5921 3.35596 16.4375 3.35596C17.2829 3.35596 18.0936 3.69672 18.6914 4.30328C19.2892 4.90985 19.625 5.73252 19.625 6.59033V19.9355C19.625 20.1065 19.6652 20.2751 19.7421 20.4272C19.8191 20.5793 19.9306 20.7106 20.0675 20.8103C21.0182 21.575 21.7108 22.621 22.0493 23.8032C22.3877 24.9853 22.3551 26.245 21.9562 27.4075C21.5572 28.5701 20.8115 29.5778 19.8226 30.2909C18.8338 31.004 17.6507 31.3872 16.4375 31.3872ZM17.5 21.8419V11.981C17.5 11.695 17.3881 11.4208 17.1888 11.2186C16.9895 11.0164 16.7193 10.9028 16.4375 10.9028C16.1557 10.9028 15.8855 11.0164 15.6862 11.2186C15.4869 11.4208 15.375 11.695 15.375 11.981V21.8419C14.519 22.1008 13.7834 22.6638 13.3028 23.4278C12.8223 24.1919 12.6288 25.1059 12.7577 26.0028C12.8867 26.8997 13.3295 27.7195 14.0052 28.3124C14.6808 28.9052 15.5442 29.2315 16.4375 29.2315C17.3308 29.2315 18.1942 28.9052 18.8698 28.3124C19.5455 27.7195 19.9883 26.8997 20.1173 26.0028C20.2463 25.1059 20.0527 24.1919 19.5722 23.4278C19.0916 22.6638 18.356 22.1008 17.5 21.8419ZM16.4375 27.0747C16.1223 27.0747 15.8142 26.9799 15.5521 26.8022C15.29 26.6245 15.0857 26.3719 14.9651 26.0764C14.8444 25.7809 14.8129 25.4557 14.8744 25.142C14.9359 24.8283 15.0877 24.5402 15.3106 24.314C15.5334 24.0878 15.8174 23.9338 16.1266 23.8714C16.4357 23.809 16.7562 23.841 17.0474 23.9634C17.3386 24.0858 17.5875 24.2931 17.7627 24.5591C17.9378 24.825 18.0313 25.1377 18.0313 25.4575C18.0308 25.8863 17.8627 26.2973 17.5639 26.6005C17.2651 26.9037 16.86 27.0742 16.4375 27.0747Z" fill="white"/>
</svg>
