<svg width="35" height="36" viewBox="0 0 35 36" fill="none" xmlns="http://www.w3.org/2000/svg">
<path d="M17.4998 3.28467C9.949 9.89574 6.1665 15.606 6.1665 20.4299C6.1665 27.6657 11.5498 32.3443 17.4998 32.3443C23.4498 32.3443 28.8332 27.6657 28.8332 20.4299C28.8332 15.606 25.0507 9.89574 17.4998 3.28467ZM11.5923 20.7204C12.1165 20.7204 12.5415 21.0982 12.6407 21.6213C13.2215 24.8469 15.8707 25.9512 17.7973 25.7914C18.4065 25.7623 18.9165 26.2563 18.9165 26.8811C18.9165 27.4623 18.4632 27.9418 17.8965 27.9708C14.879 28.1597 11.3515 26.3871 10.544 21.9845C10.5194 21.8288 10.528 21.6694 10.5694 21.5173C10.6107 21.3653 10.6838 21.2244 10.7835 21.1041C10.8832 20.9839 11.0071 20.8874 11.1468 20.8211C11.2864 20.7549 11.4385 20.7205 11.5923 20.7204Z" fill="white"/>
</svg>
