<svg width="32" height="32" viewBox="0 0 32 32" fill="none" xmlns="http://www.w3.org/2000/svg">
<path fill-rule="evenodd" clip-rule="evenodd" d="M14.6666 15.9998C14.6666 16.7362 15.2635 17.3332 15.9999 17.3332C16.7363 17.3332 17.3333 16.7362 17.3333 15.9998C17.3333 15.2635 16.7363 14.6665 15.9999 14.6665C15.2635 14.6665 14.6666 15.2635 14.6666 15.9998Z" stroke="black" stroke-width="1.33333"/>
<path fill-rule="evenodd" clip-rule="evenodd" d="M14.6666 7.99984C14.6666 8.73622 15.2635 9.33317 15.9999 9.33317C16.7363 9.33317 17.3333 8.73622 17.3333 7.99984C17.3333 7.26346 16.7363 6.6665 15.9999 6.6665C15.2635 6.6665 14.6666 7.26346 14.6666 7.99984Z" stroke="black" stroke-width="1.33333"/>
<path fill-rule="evenodd" clip-rule="evenodd" d="M14.6666 23.9998C14.6666 24.7362 15.2635 25.3332 15.9999 25.3332C16.7363 25.3332 17.3333 24.7362 17.3333 23.9998C17.3333 23.2635 16.7363 22.6665 15.9999 22.6665C15.2635 22.6665 14.6666 23.2635 14.6666 23.9998Z" stroke="black" stroke-width="1.33333"/>
</svg>
