<svg width="34" height="36" viewBox="0 0 34 36" fill="none" xmlns="http://www.w3.org/2000/svg">
<g clip-path="url(#clip0_76_371)">
<path d="M21.25 26.5321C21.25 28.9395 19.3472 30.891 17 30.891C14.6528 30.891 12.75 28.9395 12.75 26.5321C12.75 24.9189 13.605 23.5115 14.875 22.7577V19.9937C14.875 18.79 15.8264 17.8142 17 17.8142C18.1736 17.8142 19.125 18.79 19.125 19.9937V22.7577C20.3949 23.5115 21.25 24.9189 21.25 26.5321ZM23.375 20.7665C24.6973 22.3032 25.5 24.3214 25.5 26.5321C25.5 31.3471 21.6947 35.25 17 35.25C16.9801 35.25 16.9595 35.2499 16.9396 35.2498C12.2711 35.2165 8.47627 31.2749 8.50011 26.4867C8.511 24.2937 9.3118 22.2927 10.625 20.7665V6.91684C10.625 3.30579 13.4792 0.378418 17 0.378418C20.5208 0.378418 23.375 3.30579 23.375 6.91684V20.7665ZM22.3125 26.5321C22.3125 24.1933 21.0262 22.9775 20.1875 22.0027V6.91684C20.1875 5.11421 18.7576 3.64763 17 3.64763C15.2424 3.64763 13.8125 5.11421 13.8125 6.91684V22.0027C12.967 22.9854 11.6991 24.189 11.6875 26.5033C11.6727 29.4917 14.0491 31.9599 16.9617 31.9806L17 31.9808C19.9293 31.9808 22.3125 29.5365 22.3125 26.5321Z" fill="white"/>
</g>
<defs>
<clipPath id="clip0_76_371">
<rect width="34" height="34.8716" fill="white" transform="translate(0 0.378418)"/>
</clipPath>
</defs>
</svg>
