<svg width="34" height="33" viewBox="0 0 34 33" fill="none" xmlns="http://www.w3.org/2000/svg">
<g clip-path="url(#clip0_197_221)">
<path d="M26.5625 4.13547C25.1535 4.13547 23.8023 4.6726 22.806 5.6287C21.8097 6.58479 21.25 7.88154 21.25 9.23366C21.25 9.50409 21.1381 9.76343 20.9388 9.95465C20.7395 10.1459 20.4693 10.2533 20.1875 10.2533C19.9057 10.2533 19.6355 10.1459 19.4362 9.95465C19.2369 9.76343 19.125 9.50409 19.125 9.23366C19.125 7.822 19.5612 6.44205 20.3784 5.2683C21.1957 4.09455 22.3573 3.17972 23.7163 2.6395C25.0753 2.09928 26.5708 1.95794 28.0135 2.23334C29.4562 2.50874 30.7815 3.18852 31.8216 4.18671C32.8618 5.1849 33.5701 6.45668 33.8571 7.84121C34.1441 9.22574 33.9968 10.6608 33.4339 11.9651C32.8709 13.2693 31.9176 14.384 30.6946 15.1682C29.4715 15.9525 28.0335 16.3711 26.5625 16.3711H1.0625C0.780707 16.3711 0.510456 16.2637 0.311199 16.0725C0.111942 15.8813 0 15.6219 0 15.3515C0 15.0811 0.111942 14.8217 0.311199 14.6305C0.510456 14.4393 0.780707 14.3319 1.0625 14.3319H26.5625C27.9715 14.3319 29.3227 13.7947 30.319 12.8386C31.3153 11.8825 31.875 10.5858 31.875 9.23366C31.875 7.88154 31.3153 6.58479 30.319 5.6287C29.3227 4.6726 27.9715 4.13547 26.5625 4.13547ZM11.6875 6.17475C11.1239 6.17475 10.5834 6.3896 10.1849 6.77204C9.78638 7.15448 9.5625 7.67317 9.5625 8.21402C9.5625 8.48445 9.45056 8.7438 9.2513 8.93502C9.05204 9.12623 8.78179 9.23366 8.5 9.23366C8.21821 9.23366 7.94796 9.12623 7.7487 8.93502C7.54944 8.7438 7.4375 8.48445 7.4375 8.21402C7.4375 7.40736 7.68676 6.61881 8.15375 5.9481C8.62075 5.27739 9.28451 4.75463 10.0611 4.44593C10.8377 4.13724 11.6922 4.05647 12.5166 4.21384C13.3411 4.37121 14.0983 4.75965 14.6927 5.33005C15.2871 5.90045 15.6919 6.62717 15.8558 7.41834C16.0198 8.2095 15.9357 9.02956 15.614 9.77482C15.2923 10.5201 14.7476 11.1571 14.0487 11.6052C13.3498 12.0534 12.5281 12.2926 11.6875 12.2926H1.0625C0.780707 12.2926 0.510456 12.1851 0.311199 11.9939C0.111942 11.8027 0 11.5434 0 11.2729C0 11.0025 0.111942 10.7432 0.311199 10.5519C0.510456 10.3607 0.780707 10.2533 1.0625 10.2533H11.6875C12.2511 10.2533 12.7916 10.0384 13.1901 9.65601C13.5886 9.27357 13.8125 8.75487 13.8125 8.21402C13.8125 7.67317 13.5886 7.15448 13.1901 6.77204C12.7916 6.3896 12.2511 6.17475 11.6875 6.17475ZM0 19.43C0 19.1596 0.111942 18.9003 0.311199 18.709C0.510456 18.5178 0.780707 18.4104 1.0625 18.4104H22.4017C23.6626 18.4104 24.8951 18.7692 25.9435 19.4414C26.9919 20.1137 27.809 21.0692 28.2915 22.187C28.774 23.3049 28.9002 24.535 28.6543 25.7218C28.4083 26.9085 27.8011 27.9986 26.9096 28.8542C26.018 29.7098 24.8821 30.2925 23.6455 30.5285C22.4088 30.7646 21.127 30.6434 19.9621 30.1804C18.7973 29.7173 17.8016 28.9332 17.1011 27.9271C16.4006 26.921 16.0267 25.7382 16.0267 24.5282C16.0267 24.2578 16.1387 23.9985 16.3379 23.8072C16.5372 23.616 16.8075 23.5086 17.0892 23.5086C17.371 23.5086 17.6413 23.616 17.8406 23.8072C18.0398 23.9985 18.1517 24.2578 18.1517 24.5282C18.1518 25.3349 18.401 26.1234 18.868 26.7942C19.335 27.4649 19.9988 27.9876 20.7753 28.2963C21.5519 28.605 22.4065 28.6858 23.2309 28.5284C24.0553 28.371 24.8126 27.9826 25.407 27.4122C26.0013 26.8418 26.4061 26.1151 26.5701 25.3239C26.7341 24.5328 26.6499 23.7127 26.3282 22.9674C26.0066 22.2222 25.4618 21.5852 24.7629 21.137C24.064 20.6889 23.2423 20.4497 22.4017 20.4497H1.0625C0.780707 20.4497 0.510456 20.3423 0.311199 20.151C0.111942 19.9598 0 19.7005 0 19.43Z" fill="white"/>
</g>
<defs>
<clipPath id="clip0_197_221">
<rect width="34" height="32.6284" fill="white" transform="translate(0 0.0571289)"/>
</clipPath>
</defs>
</svg>
